/* XPM */
static char *background[] = {
/* columns rows colors chars-per-pixel */
"32 32 3 1 ",
"  c #195700",
". c #268700",
"X c #35BD00",
/* pixels */
"        ....    XXXX        XXXX",
"        ....    XXXX        XXXX",
"        ....    XXXX        XXXX",
"        ....    XXXX        XXXX",
"....                    ........",
"....                    ........",
"....                    ........",
"....                    ........",
"    XXXX        XXXXXXXX        ",
"    XXXX        XXXXXXXX        ",
"    XXXX        XXXXXXXX        ",
"    XXXX        XXXXXXXX        ",
"    ........                ....",
"    ........                ....",
"    ........                ....",
"    ........                ....",
"                    ....        ",
"                    ....        ",
"                    ....        ",
"                    ....        ",
"    XXXX    ....                ",
"    XXXX    ....                ",
"    XXXX    ....                ",
"    XXXX    ....                ",
"    ....                    ....",
"    ....                    ....",
"    ....                    ....",
"    ....                    ....",
"XXXX    ....        ....XXXX    ",
"XXXX    ....        ....XXXX    ",
"XXXX    ....        ....XXXX    ",
"XXXX    ....        ....XXXX    "
};
