/* XPM */
static char *collectible[] = {
/* columns rows colors chars-per-pixel */
"32 32 16 1 ",
"  c #195700",
". c #2B0068",
"X c #268700",
"o c #35BD00",
"O c #340098",
"+ c #510089",
"@ c #7500D7",
"# c #3046C1",
"$ c #9000E6",
"% c #A849EE",
"& c #009ACC",
"* c #00E0D7",
"= c #3AFFE2",
"- c #EBB7FE",
"; c #93F2F0",
": c white",
/* pixels */
"        XXXX    oooo        oooo",
"        XXXX    oooo        oooo",
"        XXXX    oooo        oooo",
"        XXXX    oooo        oooo",
"XXXX                    XXXXXXXX",
"XXXX                    XXXXXXXX",
"XXXX      ::::::::::::  XXXXXXXX",
"XXXX    ::;;;;;;;;;;==:+XXXXXXXX",
"    oo:::;;::;:;;;;===*$@+      ",
"    o:==-:;;;;;;;;===*:OO@+     ",
"    :=:==-:;;;;=====*:##OO@+    ",
"   :=:====-::::::---$&###OO@+   ",
"  :=:=:====:-----&&&O&###OOO@.XX",
" ::==:====:**=*****&&O&###OO+@.X",
" :%:======:*=*****&&&O&###OO...X",
"  :%::===:**=*****&&&#O&##..+.XX",
"  :=%%::=:*******&&&#@O&..+++.  ",
"   :==%%&&******&&##@@..++#+.   ",
"    :=:*%%&::#####&&OO++##+.    ",
"     :=:**$$$$$$$$@@@+##O+.     ",
"    oo:=:*$**&&#####+#OO+.      ",
"    ooo-***:**&&###@+#O+.       ",
"    oooo-**:**&&##@+#O+.        ",
"    oooo -**:**&&#@+#+.         ",
"    XXXX  -**$*&&#+#+.      XXXX",
"    XXXX   :*$**&&++.       XXXX",
"    XXXX    $&$*&+++        XXXX",
"    XXXX     :$*&++         XXXX",
"oooo    XXXX  :$$+  XXXXoooo    ",
"oooo    XXXX   $+   XXXXoooo    ",
"oooo    XXXX        XXXXoooo    ",
"oooo    XXXX        XXXXoooo    "
};
