/* XPM */
static char *entry[] = {
/* columns rows colors chars-per-pixel */
"32 32 4 1 ",
"  c #195700",
". c #268700",
"X c #35BD00",
"o c #D6BE08",
/* pixels */
"        ....    XXXX        XXXX",
"        ....    XXXX        XXXX",
"    ooooooooooooooooooooooooXXXX",
"    ooooooooooooooooooooooooXXXX",
"....oooooooooooooooooooooooo....",
"....ooo                 ........",
"....ooo                 ........",
"....ooo                 ........",
"    oooX        XXXXXXXX        ",
"    oooX        XXXXXXXX        ",
"    oooX        XXXXXXXX        ",
"    oooX        XXXXXXXX        ",
"    ooo.....                ....",
"    ooo.....                ....",
"    oooooooooooooooooooooooo....",
"    oooooooooooooooooooooooo....",
"    oooooooooooooooooooooooo    ",
"                    .... ooo    ",
"                    .... ooo    ",
"                    .... ooo    ",
"    XXXX    ....         ooo    ",
"    XXXX    ....         ooo    ",
"    XXXX    ....         ooo    ",
"    XXXX    ....         ooo    ",
"    ....                 ooo....",
"    ....                 ooo....",
"    ....                 ooo....",
"    oooooooooooooooooooooooo....",
"XXXXoooooooooooooooooooooooo    ",
"XXXXoooooooooooooooooooooooo    ",
"XXXX    ....        ....XXXX    ",
"XXXX    ....        ....XXXX    "
};
