/* XPM */
static char *entry2[] = {
/* columns rows colors chars-per-pixel */
"32 32 2 1 ",
"  c #D6BE08",
". c #4A148C",
/* pixels */
"................................",
"................................",
"....                        ....",
"....                        ....",
"....                        ....",
"....   .........................",
"....   .........................",
"....   .........................",
"....   .........................",
"....   .........................",
"....   .........................",
"....   .........................",
"....   .........................",
"....   .........................",
"....                        ....",
"....                        ....",
"....                        ....",
".........................   ....",
".........................   ....",
".........................   ....",
".........................   ....",
".........................   ....",
".........................   ....",
".........................   ....",
".........................   ....",
".........................   ....",
".........................   ....",
"....                        ....",
"....                        ....",
"....                        ....",
"................................",
"................................"
};
