/* XPM */
static char *exit[] = {
/* columns rows colors chars-per-pixel */
"32 32 4 1 ",
"  c #195700",
". c #E53935",
"X c #268700",
"o c #35BD00",
/* pixels */
"        XXXX    oooo        oooo",
"        XXXX    oooo        oooo",
"    ........................oooo",
"    ........................oooo",
"XXXX........................XXXX",
"XXXX...                 XXXXXXXX",
"XXXX...                 XXXXXXXX",
"XXXX...                 XXXXXXXX",
"    ...o        oooooooo        ",
"    ...o        oooooooo        ",
"    ...o        oooooooo        ",
"    ...o        oooooooo        ",
"    ...XXXXX                XXXX",
"    ...XXXXX                XXXX",
"    ........................XXXX",
"    ........................XXXX",
"    ........................    ",
"    ...             XXXX        ",
"    ...             XXXX        ",
"    ...             XXXX        ",
"    ...o    XXXX                ",
"    ...o    XXXX                ",
"    ...o    XXXX                ",
"    ...o    XXXX                ",
"    ...X                    XXXX",
"    ...X                    XXXX",
"    ...X                    XXXX",
"    ........................XXXX",
"oooo........................    ",
"oooo........................    ",
"oooo    XXXX        XXXXoooo    ",
"oooo    XXXX        XXXXoooo    "
};
