/* XPM */
static char *exit2[] = {
/* columns rows colors chars-per-pixel */
"32 32 2 1 ",
"  c #E53935",
". c #4A148C",
/* pixels */
"................................",
"................................",
"....                        ....",
"....                        ....",
"....                        ....",
"....   .........................",
"....   .........................",
"....   .........................",
"....   .........................",
"....   .........................",
"....   .........................",
"....   .........................",
"....   .........................",
"....   .........................",
"....                        ....",
"....                        ....",
"....                        ....",
"....   .........................",
"....   .........................",
"....   .........................",
"....   .........................",
"....   .........................",
"....   .........................",
"....   .........................",
"....   .........................",
"....   .........................",
"....   .........................",
"....                        ....",
"....                        ....",
"....                        ....",
"................................",
"................................"
};
