/* XPM */
static char *player[] = {
/* columns rows colors chars-per-pixel */
"32 32 14 1 ",
"  c black",
". c #6C0017",
"X c #462429",
"o c #6C3330",
"O c #195700",
"+ c #2E0073",
"@ c #BF002A",
"# c #8E4340",
"$ c #268700",
"% c #35BD00",
"& c #4A00BE",
"* c #5674E5",
"= c #F3C69A",
"- c white",
/* pixels */
"OOOOOOOO$............OOOOOOO%%%%",
"OOOOOOO... . .  . . ...OOOOO%%%%",
"OOOOOO.... @ .... @ ....OOOO%%%%",
"OOOOOO. @.....XX.....@ .OOOO%%%%",
"$$$$OXX..############..XX$$$$$$$",
"$$$$XXXooo  oooooo  oooXXX$$$$$$",
"$$$$XXXXXooooX==XXooXXXXXX$$$$$$",
"$$$$XXXX XXX X==X XXX XXXX$$$$$$",
"OOOXXo#X     X==X     X#XXXOOOOO",
"OOOXXo#X -+-+====+-+- X#oXXOOOOO",
"OOOXoo#X -+++====+++- X#ooXOOOOO",
"OOOXoo#X -&+&====&+&- X#ooXOOOOO",
"OOOXoo#X -*+*====*+*- X#ooXO$$$$",
"OOOXooXX -&-&====&-&- XXooXO$$$$",
"OOOXooXX==============XXooXO$$$$",
"OOOXXXX=======  =======XooXO$$$$",
"OOOXXXX==..= ==== =..==XXXXOOOOO",
"OOOXXXXX=====    =====XXXXXOOOOO",
"OOOXXXXXX============XXXXXXOOOOO",
"OOOOXXooXXX========XXXooXXOOOOOO",
"OOOOXX####XXX----XXX####XXOOOOOO",
"OOOO%XXooXX...@@...XXooXXOOOOOOO",
"OOOO%%XXXX-. .  . .-XXXXOOOOOOOO",
"OOOO%%%XX--........--XXOOOOOOOOO",
"OOOO$$$-----..--..-----OOOOO$$$$",
"OOOO$$$----------------OOOOO$$$$",
"OOOO$$$$---..@..@..===OOOOOO$$$$",
"OOOO$$$$===  @  @  ==OOOOOOO$$$$",
"%%%%OOOO$==@@@@@@@@O$$$$%%%%OOOO",
"%%%%OOOO$$$  @  @  O$$$$%%%%OOOO",
"%%%%OOOO$$$---OO---O$$$$%%%%OOOO",
"%%%%OOOO$$$   OO   O$$$$%%%%OOOO"
};
