/* XPM */
static char *wall[] = {
/* columns rows colors chars-per-pixel */
"32 32 137 2 ",
"   c #D8C6B5",
".  c #CEB7A1",
"X  c #CAAF98",
"o  c #CBB19A",
"O  c #A9806A",
"+  c #BB7242",
"@  c #BA7142",
"#  c #BB7343",
"$  c #BC7444",
"%  c #BA7446",
"&  c #9F5336",
"*  c #9E5336",
"=  c #8E6550",
"-  c #C47B4B",
";  c #C37A4A",
":  c #BF7646",
">  c #AD5C3E",
",  c #A45639",
"<  c #A25538",
"1  c #9F5337",
"2  c #9F5438",
"3  c #9E745D",
"4  c #9F775F",
"5  c #D7C4B3",
"6  c #C37D4E",
"7  c #C37E50",
"8  c #C27F52",
"9  c #D5C1AF",
"0  c #CAAF99",
"q  c #CBB29B",
"w  c #D7C3B2",
"e  c #715B50",
"r  c #996148",
"t  c #885F4A",
"y  c #6B5144",
"u  c #6A5144",
"i  c #9A6249",
"p  c #996F5A",
"a  c #6C5347",
"s  c #9A634A",
"d  c #9B664C",
"f  c #9B664B",
"g  c #9B654B",
"h  c #9C664C",
"j  c #D9C6B6",
"k  c #8A533B",
"l  c #825743",
"z  c #986047",
"x  c #915A41",
"c  c #915941",
"v  c #8E573E",
"b  c #8B543B",
"n  c #855B46",
"m  c #D7C5B5",
"M  c #C9AF97",
"N  c #99715B",
"B  c #977059",
"V  c #9A715B",
"C  c #9C745E",
"Z  c #9C745D",
"A  c #9B735C",
"S  c #9A725C",
"D  c #86533D",
"F  c #8A5640",
"G  c #88553F",
"H  c #A27962",
"J  c #9C755E",
"K  c #9A725D",
"L  c #86533E",
"P  c #8F5840",
"I  c #905940",
"U  c #8F5940",
"Y  c #8F5A41",
"T  c #905A41",
"R  c #C17A4B",
"E  c #AA826A",
"W  c #AB826B",
"Q  c #AA826B",
"!  c #AA816A",
"~  c #9B745D",
"^  c #89543E",
"/  c #8D573E",
"(  c #945C44",
")  c #935C44",
"_  c #945D44",
"`  c #955F46",
"'  c #9A654A",
"]  c #99654B",
"[  c #9C674D",
"{  c #C37D4D",
"}  c #C07E50",
"|  c #BD7A4D",
" . c #BB794B",
".. c #BB784A",
"X. c #8F644F",
"o. c #61423B",
"O. c #61413A",
"+. c #603E38",
"@. c #613F39",
"#. c #5F3D36",
"$. c #5F3C36",
"%. c #613F38",
"&. c #5E3A33",
"*. c #AB5B3E",
"=. c #926752",
"-. c #936952",
";. c #956B54",
":. c #936852",
">. c #D8C5B5",
",. c #9C684D",
"<. c #A07861",
"1. c #8D563D",
"2. c #945E44",
"3. c #935B42",
"4. c #925B42",
"5. c #905941",
"6. c #8E563E",
"7. c #A98069",
"8. c #905B41",
"9. c #925C43",
"0. c #935D44",
"q. c #976047",
"w. c #996047",
"e. c #9D755E",
"r. c #956D58",
"t. c #966F58",
"y. c #A17962",
"u. c #A37A64",
"i. c #A27A63",
"p. c #CBB099",
"a. c #835A45",
"s. c #825844",
"d. c #815844",
"f. c #8E644F",
"g. c #8E634E",
"h. c #674741",
"j. c white",
/* pixels */
"          . . . . . . . X X X X X X             o X X X X X X X ",
"O O O O O . + @ + # $ $ %   & * * * * * * * * * * * * * X = = = ",
"O O O O O . - - - - - ; :   > > > > > > > > > , < 1 2 * X 3 4 4 ",
"O O O O O 5 - - 6 7 8 8 6 9 > > > > > > > > > > > > > > X O O O ",
"                    X X X X X X X X 0 q X   w X X X X X X X X   ",
"X e e e e e e e e e e   r r r r r r r r X t t t t t t t t t t t ",
"X e e e e y y y y y u   r r r r r r r i X p p p p p p p p t t t ",
"X e a y y y y y y y y   r s d f g h d g X p p p p p p p p p p t ",
"w X X X X X X               j X X X X X X X X X X               ",
"r r k k k k X * * * * * * * * X l l l l l l l l l   z x x c v k ",
"r r r r b k X * * * * * * * * X l l l l l l l l l   r r r r r r ",
"r r r r r r X > > > > > > > > j n l l l l l l l l   r r r r r r ",
"  m         X X X X X           j M X X X X X X                 ",
"w N B B V C Z Z A S X D F G D D D D D D D X - - - - - - - - - - ",
"  O O O O O O H J K X D D L P I U Y T Y Y X - - - R - - - - - - ",
"  O O O E W Q ! O ~ X ^ / ( ) _ ` ' ] [ s X - { } |  ...........",
"X X X X X X X X X X X X X                 X X X X X X X X X X X ",
"* * * * * *   X.X.X.X.X.X.X.X.X o.o.O.O.O.+.@.@.#.$.X * * * * * ",
"> > > > * *   X.X.X.X.X.X.X.X.X %.O.O.o.o.O.O.o.o.&.X *.> > > > ",
"> > > > > >   X.X.X.=.-.;.:.X.X &.&.&.&.&.&.&.&.&.&.X > > > > > ",
"                    >.X X X X X X X X X X X X X X X X X X X X   ",
"r ,.9 O O O O O O O <.X 1.v 2.3.4.5.6.v X r r r r r r r r r r r ",
"r r X O O 7.7.O O O H X Y 8.Y Y 9.0.q.w.X r r r r r r r r r r r ",
"r r X e.r.t.y.u.i.y.V X Y r r 2.9.Y r r X r r r r r r r r r r r ",
"    X X X X X X X X X X             X X X X X X X X X X X X X p.",
"O O O O O O   a.s.s.s.s.s.s.s.s.s.d.X * * * * * * * *   O O O O ",
"O O O O O O   f.g.s.s.s.s.s.s.d.d.s.X * * > > > * * *   O O O O ",
"O O O O O O   X.X.X.X.X.X.X.X.X.X.s.X > > > > > > > >   O O O O ",
"                        X X X X X X X                           ",
"X.X.X.  o.o.o.o.o.o.o.o.X O O O O O O O O O O   X.X.X.X.X.X.X.X.",
"X.X.X.  o.h.h.h.h.h.h.o.X O O O O O O O O O O   X.X.X.X.X.X.X.X.",
"X.X.X.  &.&.&.&.&.&.&.&.X O O O O O O O O O O   X.X.X.X.X.X.X.X."
};
