/* XPM */
static char *obstacle[] = {
/* columns rows colors chars-per-pixel */
"32 32 12 1 ",
"  c #2D3429",
". c #195700",
"X c #205038",
"o c #1B6E39",
"O c #7C3645",
"+ c #A23A46",
"@ c #BA5C58",
"# c #268700",
"$ c #35BD00",
"% c #4B8E3D",
"& c #73A747",
"* c #9DB658",
/* pixels */
"........####....$$$$........$$$$",
"........####....$$$$........$$$$",
"........####....$$$$........$$$$",
"........####oooooo**........$$$$",
"####.......o&&@&&%%&*...########",
"####.....oo&&&&&&&%%&**.########",
"####.... &&%&&&%&&&&&&&*########",
"####... o&%&&&&%%@&&&&@&**######",
"....$$ oo&%%&&&&%%&&&&&%&&*.....",
"....$$ o&&&&&&+@&&&&&&&%&&*.....",
"....$ oo+&oo&&&+&&&&&+%%&&@*....",
".... Xooooooo&&&&&&&&%%&&&&&*...",
".... Xoooo%oooo&&&&&&&&&&%&&*###",
".... XXoOoo%ooX&&&&&&&&&&@+& ###",
".... XXXoXooooXo&+@&%&&%&+%& ###",
"... XXXXXXooXXooo++&&%%&&&%& ###",
"... XXXXXXooo%%ooooo&&&&&o&& ...",
"... XoXXXXXooo%oooooo&oooo&& ...",
"... XoXXXXXo++oooooooooo%oo& ...",
"... XXoO+XXX++ooXo%%oXooo%oo ...",
".... XXOOXXXXooXXooo%oXo%%o ....",
".... XXXXXXXXXXXXoOo%oXXooo ....",
".... XXXXXoXXXXXXXooooXXoo .....",
"....$  XXooXXXoXXXXo%XXoo ......",
"....###    XXXXXXX+XXXX  ...####",
"....####...    XXXOOX  .....####",
"....####.......      .......####",
"....####....................####",
"$$$$....####........####$$$$....",
"$$$$....####........####$$$$....",
"$$$$....####........####$$$$....",
"$$$$....####........####$$$$...."
};
