/* XPM */
static char *player_right[] = {
/* columns rows colors chars-per-pixel */
"32 32 14 1 ",
"  c black",
". c #6C0017",
"X c #462429",
"o c #6C3330",
"O c #195700",
"+ c #2E0073",
"@ c #BF002A",
"# c #8E4340",
"$ c #268700",
"% c #35BD00",
"& c #4A00BE",
"* c #5674E5",
"= c #F3C69A",
"- c white",
/* pixels */
"OOOOOOOO$$$$OOOO.........OOO%%%%",
"OOOOOOOO$$$$OO.... . ..  OOO%%%%",
"OOOOOOOO$$$$X..... @ ....OOO%%%%",
"OOOOOOOO$$XX.. @......XXXOOO%%%%",
"$$$$OOOOOXXXX....#######X$$$$$$$",
"$$$$OOOOXXXXXXXooo#oooooX$$$$$$$",
"$$$$OOOXXX#oXXXXoooo  oXX$$$$$$$",
"$$$$OOOXX##ooXXXXoXXXXXXX$$$$$$$",
"OOOO%%XX##ooooXXXXX XX ==OOOOOOO",
"OOOO%%XX#oooooXXXXX    ==OOOOOOO",
"OOOO%%XX#ooooXXX==X -+-==OOOOOOO",
"OOOO%%XX#oooXXX==== -++==OOOOOOO",
"OOOO$$XX##ooXXX==== -&+==OOO$$$$",
"OOOO$$XX##oXXXX==== -*-==OOO$$$$",
"OOOO$$XX#ooXXX===== -&*==OOO$$$$",
"OOOO$$XX#oXXX=========== OOO$$$$",
"OOOOOOXXXXXXX====..= ====OOOOOOO",
"OOOOOOXXXXXoXX=======   OOOOOOOO",
"OOOOOOXXXXoooXXX=======$OOOOOOOO",
"OOOOOOXXX##oooXXX-----$$OOOOOOOO",
"OOOO%%%XXX##oXXX-...@@OOOOOOOOOO",
"OOOO%%%%XXX#XXX--. .  OOOOOOOOOO",
"OOOO%%%%OXXXXX---.....OOOOOOOOOO",
"OOOO%%%%OOXXX-----..--OOOOOOOOOO",
"OOOO$$$$OOOOO---------OOOOOO$$$$",
"OOOO$$$$OOOOOO--------OOOOOO$$$$",
"OOOO$$$$OOOOOO===.@..@OOOOOO$$$$",
"OOOO$$$$OOOOOOO== @  @OOOOOO$$$$",
"%%%%OOOO$$$$OOOOO@@@@@$$%%%%OOOO",
"%%%%OOOO$$$$OOOOO @  @$$%%%%OOOO",
"%%%%OOOO$$$$OOOOO.@---$$%%%%OOOO",
"%%%%OOOO$$$$OOOOOOO   $$%%%%OOOO"
};
