/* XPM */
static char *player_left[] = {
/* columns rows colors chars-per-pixel */
"32 32 14 1 ",
"  c black",
". c #6C0017",
"X c #462429",
"o c #6C3330",
"O c #195700",
"+ c #2E0073",
"@ c #BF002A",
"# c #8E4340",
"$ c #268700",
"% c #35BD00",
"& c #4A00BE",
"* c #5674E5",
"= c #F3C69A",
"- c white",
/* pixels */
"OOOOOOO.........%%%%OOOOOOOO%%%%",
"OOOOOOO  .. . ....%%OOOOOOOO%%%%",
"OOOOOOO.... @ .....XOOOOOOOO%%%%",
"OOOOOOOXXX......@ ..XXOOOOOO%%%%",
"$$$$OOOX#######....XXXXO$$$$$$$$",
"$$$$OOOXooooo#oooXXXXXXX$$$$$$$$",
"$$$$OOOXXo  ooooXXXXo#XXX$$$$$$$",
"$$$$OOOXXXXXXXoXXXXoo##XX$$$$$$$",
"OOOO%%%== XX XXXXXoooo##XXOOOOOO",
"OOOO%%%==    XXXXXooooo#XXOOOOOO",
"OOOO%%%==-+- X==XXXoooo#XXOOOOOO",
"OOOO%%%==++- ====XXXooo#XXOOOOOO",
"OOOO$$$==+&- ====XXXoo##XXOO$$$$",
"OOOO$$$==-*- ====XXXXo##XXOO$$$$",
"OOOO$$$==*&- =====XXXoo#XXOO$$$$",
"OOOO$$$ ===========XXXo#XXOO$$$$",
"OOOOOOO==== =..====XXXXXXXOOOOOO",
"OOOOOOOO   =======XXoXXXXXOOOOOO",
"OOOOOOOOO=======XXXoooXXXXOOOOOO",
"OOOOOOOOOO-----XXXooo##XXXOOOOOO",
"OOOO%%%%OO@@...-XXXo##XXXOOOOOOO",
"OOOO%%%%OO  . .--XXX#XXXOOOOOOOO",
"OOOO%%%%OO.....---XXXXXOOOOOOOOO",
"OOOO%%%%OO--..-----XXXOOOOOOOOOO",
"OOOO$$$$OO---------OOOOOOOOO$$$$",
"OOOO$$$$OO--------OOOOOOOOOO$$$$",
"OOOO$$$$OO@..@.===OOOOOOOOOO$$$$",
"OOOO$$$$OO@  @ ==OOOOOOOOOOO$$$$",
"%%%%OOOO$$@@@@@OOOOO$$$$%%%%OOOO",
"%%%%OOOO$$@  @ OOOOO$$$$%%%%OOOO",
"%%%%OOOO$$---@.OOOOO$$$$%%%%OOOO",
"%%%%OOOO$$   OOOOOOO$$$$%%%%OOOO"
};
