/* XPM */
static char *wall2[] = {
/* columns rows colors chars-per-pixel */
"32 32 124 2 ",
"   c #5E3A33",
".  c #5F3C36",
"X  c #5F3D36",
"o  c #603E38",
"O  c #613F38",
"+  c #613F39",
"@  c #61413A",
"#  c #61423B",
"$  c #674741",
"%  c #6A5144",
"&  c #6B5144",
"*  c #6C5347",
"=  c #715B50",
"-  c #86533D",
";  c #86533E",
":  c #8A533B",
">  c #8B543B",
",  c #89543E",
"<  c #88553F",
"1  c #8D563D",
"2  c #8D573E",
"3  c #8E563E",
"4  c #8E573E",
"5  c #9E5336",
"6  c #9F5336",
"7  c #9F5337",
"8  c #9F5438",
"9  c #A25538",
"0  c #A45639",
"q  c #AB5B3E",
"w  c #AD5C3E",
"e  c #825743",
"r  c #8A5640",
"t  c #815844",
"y  c #825844",
"u  c #835A45",
"i  c #855B46",
"p  c #8F5840",
"a  c #8F5940",
"s  c #8F5A41",
"d  c #885F4A",
"f  c #905940",
"g  c #905941",
"h  c #915941",
"j  c #905A41",
"k  c #915A41",
"l  c #905B41",
"z  c #925B42",
"x  c #935B42",
"c  c #925C43",
"v  c #935C44",
"b  c #935D44",
"n  c #945C44",
"m  c #945D44",
"M  c #945E44",
"N  c #955F46",
"B  c #8E634E",
"V  c #8E644F",
"C  c #8F644F",
"Z  c #976047",
"A  c #986047",
"S  c #996047",
"D  c #996148",
"F  c #9A6249",
"G  c #9A634A",
"H  c #99654B",
"J  c #9A654A",
"K  c #9B654B",
"L  c #9B664B",
"P  c #9B664C",
"I  c #9C664C",
"U  c #9C674D",
"Y  c #9C684D",
"T  c #8E6550",
"R  c #926752",
"E  c #936852",
"W  c #936952",
"Q  c #956B54",
"!  c #956D58",
"~  c #966F58",
"^  c #996F5A",
"/  c #977059",
"(  c #99715B",
")  c #9A715B",
"_  c #9A725C",
"`  c #9B735C",
"'  c #9A725D",
"]  c #9B745D",
"[  c #9C745D",
"{  c #9E745D",
"}  c #9C745E",
"|  c #9C755E",
" . c #9D755E",
".. c #9F775F",
"X. c #BA7142",
"o. c #BB7242",
"O. c #BB7343",
"+. c #BA7446",
"@. c #BC7444",
"#. c #BF7646",
"$. c #BB784A",
"%. c #BB794B",
"&. c #BD7A4D",
"*. c #A07861",
"=. c #A17962",
"-. c #A27962",
";. c #A27A63",
":. c #A37A64",
">. c #C17A4B",
",. c #C37A4A",
"<. c #C47B4B",
"1. c #C37D4D",
"2. c #C37D4E",
"3. c #C07E50",
"4. c #C37E50",
"5. c #C27F52",
"6. c #1FBC19",
"7. c #1BAA3C",
"8. c #A98069",
"9. c #A9806A",
"0. c #AA816A",
"q. c #AA826A",
"w. c #AA826B",
"e. c #AB826B",
/* pixels */
"6.6.6.6.6.7.7.7.7.7.7.7.7.7.7.7.7.7.6.6.6.6.6.6.7.7.7.7.7.7.7.7.",
"9.9.9.9.9.7.o.X.o.O.@.@.+.6.6 5 5 5 5 5 5 5 5 5 5 5 5 5 7.T T T ",
"9.9.9.9.9.7.<.<.<.<.<.,.#.6.w w w w w w w w w 0 9 7 8 5 7.{ ....",
"9.9.9.9.9.6.<.<.2.4.5.5.2.6.w w w w w w w w w w w w w w 7.9.9.9.",
"6.6.6.6.6.6.6.6.6.6.7.7.7.7.7.7.7.7.6.6.7.6.6.7.7.7.7.7.7.7.7.6.",
"6.= = = = = = = = = = 6.D D D D D D D D 7.d d d d d d d d d d d ",
"6.= = = = & & & & & % 6.D D D D D D D F 7.^ ^ ^ ^ ^ ^ ^ ^ d d d ",
"6.= * & & & & & & & & 6.D G P L K I P K 7.^ ^ ^ ^ ^ ^ ^ ^ ^ ^ d ",
"6.7.7.7.7.7.7.6.6.6.6.6.6.6.6.7.7.7.7.7.7.7.7.7.7.6.6.6.6.6.6.6.",
"D D : : : : 7.5 5 5 5 5 5 5 5 7.e e e e e e e e e 6.A k k h 4 : ",
"D D D D > : 7.5 5 5 5 5 5 5 5 7.e e e e e e e e e 6.D D D D D D ",
"D D D D D D 7.w w w w w w w w 6.i e e e e e e e e 6.D D D D D D ",
"6.6.6.6.6.6.7.7.7.7.7.6.6.6.6.6.6.7.7.7.7.7.7.7.6.6.6.6.6.6.6.6.",
"6.( / / ) } [ [ ` _ 7.- r < - - - - - - - 7.<.<.<.<.<.<.<.<.<.<.",
"6.9.9.9.9.9.9.-.| ' 7.- - ; p f a s j s s 7.<.<.<.>.<.<.<.<.<.<.",
"6.9.9.9.q.e.w.0.9.] 7., 2 n v m N J H U G 7.<.1.3.&.%.$.$.$.$.$.",
"7.7.7.7.7.7.7.7.7.7.7.7.7.6.6.6.6.6.6.6.6.7.7.7.7.7.7.7.7.7.7.7.",
"5 5 5 5 5 5 6.C C C C C C C C 7.# # @ @ @ o + + X . 7.5 5 5 5 5 ",
"w w w w 5 5 6.C C C C C C C C 7.O @ @ # # @ @ # #   7.q w w w w ",
"w w w w w w 6.C C C R W Q E C 7.                    7.w w w w w ",
"6.6.6.6.6.6.6.6.6.6.6.7.7.7.7.7.7.7.7.7.7.7.7.7.7.7.7.7.7.7.7.6.",
"D Y 6.9.9.9.9.9.9.9.*.7.1 4 M x z g 3 4 7.D D D D D D D D D D D ",
"D D 7.9.9.8.8.9.9.9.-.7.s l s s c b Z S 7.D D D D D D D D D D D ",
"D D 7. .! ~ =.:.;.=.) 7.s D D M c s D D 7.D D D D D D D D D D D ",
"6.6.7.7.7.7.7.7.7.7.7.7.6.6.6.6.6.6.7.7.7.7.7.7.7.7.7.7.7.7.7.6.",
"9.9.9.9.9.9.6.u y y y y y y y y y t 7.5 5 5 5 5 5 5 5 6.9.9.9.9.",
"9.9.9.9.9.9.6.V B y y y y y y t t y 7.5 5 w w w 5 5 5 6.9.9.9.9.",
"9.9.9.9.9.9.6.C C C C C C C C C C y 7.w w w w w w w w 6.9.9.9.9.",
"6.6.6.6.6.6.6.6.6.6.6.6.7.7.7.7.7.7.7.6.6.6.6.6.6.6.6.6.6.6.6.6.",
"C C C 6.# # # # # # # # 7.9.9.9.9.9.9.9.9.9.9.6.C C C C C C C C ",
"C C C 6.# $ $ $ $ $ $ # 7.9.9.9.9.9.9.9.9.9.9.6.C C C C C C C C ",
"C C C 6.                7.9.9.9.9.9.9.9.9.9.9.6.C C C C C C C C "
};
